<svg width="50" height="50" viewBox="0 0 50 50" fill="none" xmlns="http://www.w3.org/2000/svg">
<g opacity="0.9">
<path d="M19.2239 17.3104C9.96649 17.3104 0 14.6011 0 8.65424C0 2.70741 9.96492 0 19.2239 0C28.4829 0 38.4478 2.7093 38.4478 8.65424C38.4478 14.5992 28.4829 17.3104 19.2239 17.3104ZM19.2239 3.78659C8.62082 3.78659 3.15146 7.19451 3.15146 8.65424C3.15146 10.114 8.61924 13.5238 19.2239 13.5238C29.8286 13.5238 35.2964 10.1159 35.2964 8.65424C35.2964 7.19262 29.8333 3.78659 19.2239 3.78659Z" fill="#EDE0D4"/>
<path d="M19.2239 50C9.96649 50 0 47.2926 0 41.3458V8.6543H3.15146V41.3363C3.15146 42.7923 8.61924 46.204 19.2239 46.204C29.8286 46.204 35.2964 42.7961 35.2964 41.3363V8.6543H38.4478V41.3363C38.4463 47.2832 28.4829 50 19.2239 50Z" fill="#EDE0D4"/>
<path d="M30.7002 37.5045C30.2823 37.5045 29.8815 37.305 29.586 36.95C29.2905 36.5949 29.1245 36.1134 29.1245 35.6112V19.4349C29.1245 18.9328 29.2905 18.4512 29.586 18.0962C29.8815 17.7411 30.2823 17.5416 30.7002 17.5416C31.1181 17.5416 31.5189 17.7411 31.8144 18.0962C32.1099 18.4512 32.2759 18.9328 32.2759 19.4349V35.6112C32.2759 36.1134 32.1099 36.5949 31.8144 36.95C31.5189 37.305 31.1181 37.5045 30.7002 37.5045Z" fill="#EDE0D4"/>
<path d="M39.7985 39.7557C38.591 39.7563 37.3942 39.484 36.2704 38.953L37.4207 35.4277C38.1779 35.7863 38.9846 35.97 39.7985 35.9692C41.7241 35.7548 43.5137 34.6841 44.8166 32.967C46.1194 31.2498 46.8416 29.01 46.8416 26.6863C46.8416 24.3627 46.1194 22.1229 44.8166 20.4057C43.5137 18.6886 41.7241 17.6179 39.7985 17.4035C39.0464 17.4021 38.2998 17.5584 37.5925 17.8655L36.5226 14.3061C37.5712 13.849 38.6783 13.6157 39.7938 13.6169C42.5589 13.8287 45.1531 15.2977 47.0489 17.7254C48.9448 20.1531 50 23.3573 50 26.6863C50 30.0154 48.9448 33.2196 47.0489 35.6473C45.1531 38.075 42.5589 39.544 39.7938 39.7557H39.7985Z" fill="#EDE0D4"/>
</g>
</svg>
