<svg width="128" height="112" viewBox="0 0 128 112" fill="none" xmlns="http://www.w3.org/2000/svg">
<path d="M111.943 0.413272C102.846 -0.978228 94.2853 4.36927 91.2955 12.7203H80.286V22.195H90.5115C91.8145 30.038 97.935 36.5338 106.225 37.804C116.545 39.383 126.196 32.2935 127.781 21.9688C129.357 11.6438 122.268 1.99227 111.943 0.413272Z" fill="white"/>
<path d="M40.6537 76.5555C40.6537 74.8355 39.2595 73.4385 37.5367 73.4385H24.04C22.3172 73.4385 20.9232 74.8355 20.9232 76.5555C20.9232 78.2725 22.3172 79.6723 24.04 79.6723H37.537C39.2595 79.6723 40.6537 78.2728 40.6537 76.5555Z" fill="white"/>
<path d="M98.2497 51.4912L71.0683 77.113L61.5768 79.4625V57.8077H0V111.807H61.5768V96.9433L70.4635 95.5102C74.701 94.9057 77.8125 93.8373 81.5475 91.7558L93.123 85.6988V111.807H126.232V59.707C126.232 42.6545 107.004 42.6075 98.2497 51.4912ZM53.999 104.228H7.57825V65.3857H53.999V81.337L44.8942 83.5895C40.9022 84.6883 38.4672 88.719 39.3507 92.7635L39.4253 93.0752C40.2948 97.0532 44.088 99.6843 48.1215 99.1103L53.999 98.1633V104.228Z" fill="white"/>
</svg>
