<svg width="109" height="108" viewBox="0 0 109 108" fill="none" xmlns="http://www.w3.org/2000/svg">
<path d="M94.7014 0.212675C87.0264 -1.13378 79.8031 4.04061 77.2805 12.1213H67.9912V21.2893H76.619C77.7184 28.8784 82.8825 35.1638 89.8774 36.393C98.5845 37.9208 106.728 31.0609 108.065 21.0704C109.395 11.0796 103.413 1.74056 94.7014 0.212675Z" fill="white"/>
<path d="M34.5515 73.8899C34.5515 72.2256 33.3751 70.8738 31.9216 70.8738H20.5337C19.0801 70.8738 17.9039 72.2256 17.9039 73.8899C17.9039 75.5513 19.0801 76.9058 20.5337 76.9058H31.9218C33.3751 76.9058 34.5515 75.5516 34.5515 73.8899Z" fill="white"/>
<path d="M83.1482 49.6371L60.2138 74.4294L52.2054 76.7029V55.7491H0.25V108H52.2054V93.6177L59.7036 92.2311C63.2789 91.6461 65.9043 90.6122 69.0557 88.5981L78.8225 82.7372V108H106.758V57.5869C106.758 41.0864 90.5346 41.041 83.1482 49.6371ZM45.8116 100.667H6.64415V63.0818H45.8116V78.5167L38.1295 80.6962C34.7613 81.7594 32.7067 85.6597 33.4522 89.5732L33.515 89.8749C34.2487 93.7241 37.4492 96.27 40.8525 95.7145L45.8116 94.7982V100.667Z" fill="white"/>
</svg>
