<svg width="30" height="30" viewBox="0 0 30 30" fill="none" xmlns="http://www.w3.org/2000/svg">
<g clip-path="url(#clip0_1_334)">
<path d="M22.3126 19.2L25.9837 4.82534H30V2.56585H24.2288L23.3634 5.95441L0 5.9377L2.48387 19.1999H22.3126V19.2ZM22.7865 8.2135L20.5576 16.9404H4.35945L2.72228 8.19915L22.7865 8.2135Z" fill="black"/>
<path d="M19.2194 27.4342C21.2118 27.4342 22.8327 25.8132 22.8327 23.8209C22.8327 21.8285 21.2118 20.2076 19.2194 20.2076H5.60599C3.61362 20.2076 1.99268 21.8285 1.99268 23.8209C1.99268 25.8132 3.61359 27.4342 5.60599 27.4342C7.59839 27.4342 9.21928 25.8132 9.21928 23.8209C9.21928 23.3424 9.12554 22.8855 8.95588 22.4671H15.8695C15.6998 22.8855 15.6061 23.3424 15.6061 23.8209C15.6061 25.8132 17.2271 27.4342 19.2194 27.4342ZM6.95979 23.8209C6.95979 24.5674 6.35249 25.1747 5.60599 25.1747C4.8595 25.1747 4.25216 24.5674 4.25216 23.8209C4.25216 23.0744 4.85947 22.4671 5.60599 22.4671C6.35249 22.4671 6.95979 23.0744 6.95979 23.8209ZM20.5733 23.8209C20.5733 24.5674 19.966 25.1747 19.2195 25.1747C18.473 25.1747 17.8657 24.5674 17.8657 23.8209C17.8657 23.0744 18.473 22.4671 19.2195 22.4671C19.966 22.4671 20.5733 23.0744 20.5733 23.8209Z" fill="black"/>
</g>
<defs>
<clipPath id="clip0_1_334">
<rect width="30" height="30" fill="white"/>
</clipPath>
</defs>
</svg>
