<svg width="128" height="128" viewBox="0 0 128 128" fill="none" xmlns="http://www.w3.org/2000/svg">
<path d="M118 0H10C5.578 0 2 3.578 2 8V48C2 52.44 4.416 56.304 8 58.38V120C8 124.422 11.578 128 16 128H112C116.422 128 120 124.422 120 120V58.38C123.584 56.304 126 52.438 126 48V8C126 3.578 122.422 0 118 0ZM102 4V48C102 52.418 98.418 56 94 56C89.582 56 86 52.418 86 48V4H102ZM82 4V48C82 52.418 78.418 56 74 56C69.582 56 66 52.418 66 48V4H82ZM62 4V48C62 52.418 58.418 56 54 56C49.582 56 46 52.418 46 48V4H62ZM42 4V48C42 52.418 38.418 56 34 56C29.582 56 26 52.418 26 48V4H42ZM6 8C6 5.792 7.792 4 10 4H22V48C22 52.418 18.418 56 14 56C9.582 56 6 52.418 6 48V8ZM24 124V76H48V96H46C44.894 96 44 96.894 44 98C44 99.106 44.894 100 46 100H48V124H24ZM116 120C116 122.208 114.208 124 112 124H52V74C52 72.968 51.106 72 50 72H22C20.894 72 20 72.894 20 74V124H16C13.792 124 12 122.208 12 120V59.82C12.652 59.93 13.316 60 14 60C18.176 60 21.852 57.864 24 54.626C26.148 57.864 29.824 60 34 60C38.176 60 41.852 57.864 44 54.626C46.148 57.864 49.824 60 54 60C58.176 60 61.852 57.864 64 54.626C66.148 57.864 69.824 60 74 60C78.176 60 81.852 57.864 84 54.626C86.148 57.864 89.824 60 94 60C98.176 60 101.852 57.864 104 54.626C106.148 57.864 109.824 60 114 60C114.684 60 115.348 59.93 116 59.82V120ZM114 56C109.582 56 106 52.418 106 48V4H118C120.208 4 122 5.792 122 8V48C122 52.418 118.418 56 114 56Z" fill="white"/>
<path d="M106 72H58C56.894 72 56 72.894 56 74V114C56 115.106 56.894 116 58 116H106C107.106 116 108 115.106 108 114V74C108 72.894 107.106 72 106 72ZM104 112H60V76H104V112Z" fill="white"/>
<path d="M96.586 85.414C96.976 85.804 97.488 86 98 86C98.512 86 99.024 85.804 99.414 85.414C100.196 84.632 100.196 83.368 99.414 82.586L97.414 80.586C96.632 79.804 95.368 79.804 94.586 80.586C93.804 81.368 93.804 82.632 94.586 83.414L96.586 85.414Z" fill="white"/>
<path d="M96.586 95.414C96.976 95.804 97.488 96 98 96C98.512 96 99.024 95.804 99.414 95.414C100.196 94.632 100.196 93.368 99.414 92.586L87.414 80.586C86.632 79.804 85.368 79.804 84.586 80.586C83.804 81.368 83.804 82.632 84.586 83.414L96.586 95.414Z" fill="white"/>
</svg>
