<svg width="109" height="108" viewBox="0 0 109 108" fill="none" xmlns="http://www.w3.org/2000/svg">
<path d="M99.9926 0H8.86755C5.13649 0 2.11755 3.01894 2.11755 6.75V40.5C2.11755 44.2463 4.15605 47.5065 7.18005 49.2581V101.25C7.18005 104.981 10.199 108 13.9301 108H94.9301C98.6611 108 101.68 104.981 101.68 101.25V49.2581C104.704 47.5065 106.743 44.2446 106.743 40.5V6.75C106.743 3.01894 103.724 0 99.9926 0ZM86.4926 3.375V40.5C86.4926 44.2277 83.4702 47.25 79.7426 47.25C76.0149 47.25 72.9926 44.2277 72.9926 40.5V3.375H86.4926ZM69.6176 3.375V40.5C69.6176 44.2277 66.5952 47.25 62.8676 47.25C59.1399 47.25 56.1176 44.2277 56.1176 40.5V3.375H69.6176ZM52.7426 3.375V40.5C52.7426 44.2277 49.7202 47.25 45.9926 47.25C42.2649 47.25 39.2426 44.2277 39.2426 40.5V3.375H52.7426ZM35.8676 3.375V40.5C35.8676 44.2277 32.8452 47.25 29.1176 47.25C25.3899 47.25 22.3676 44.2277 22.3676 40.5V3.375H35.8676ZM5.49255 6.75C5.49255 4.887 7.00455 3.375 8.86755 3.375H18.9926V40.5C18.9926 44.2277 15.9702 47.25 12.2426 47.25C8.51487 47.25 5.49255 44.2277 5.49255 40.5V6.75ZM20.6801 104.625V64.125H40.9301V81H39.2426C38.3094 81 37.5551 81.7543 37.5551 82.6875C37.5551 83.6207 38.3094 84.375 39.2426 84.375H40.9301V104.625H20.6801ZM98.3051 101.25C98.3051 103.113 96.7931 104.625 94.9301 104.625H44.3051V62.4375C44.3051 61.5668 43.5507 60.75 42.6176 60.75H18.9926C18.0594 60.75 17.3051 61.5043 17.3051 62.4375V104.625H13.9301C12.0671 104.625 10.5551 103.113 10.5551 101.25V50.4731C11.1052 50.5659 11.6654 50.625 12.2426 50.625C15.7661 50.625 18.8677 48.8227 20.6801 46.0907C22.4924 48.8227 25.5941 50.625 29.1176 50.625C32.6411 50.625 35.7427 48.8227 37.5551 46.0907C39.3674 48.8227 42.4691 50.625 45.9926 50.625C49.5161 50.625 52.6177 48.8227 54.4301 46.0907C56.2424 48.8227 59.3441 50.625 62.8676 50.625C66.3911 50.625 69.4927 48.8227 71.3051 46.0907C73.1174 48.8227 76.2191 50.625 79.7426 50.625C83.2661 50.625 86.3677 48.8227 88.1801 46.0907C89.9924 48.8227 93.0941 50.625 96.6176 50.625C97.1947 50.625 97.7549 50.5659 98.3051 50.4731V101.25ZM96.6176 47.25C92.8899 47.25 89.8676 44.2277 89.8676 40.5V3.375H99.9926C101.856 3.375 103.368 4.887 103.368 6.75V40.5C103.368 44.2277 100.345 47.25 96.6176 47.25Z" fill="white"/>
<path d="M89.8676 60.75H49.3676C48.4344 60.75 47.6801 61.5043 47.6801 62.4375V96.1875C47.6801 97.1207 48.4344 97.875 49.3676 97.875H89.8676C90.8007 97.875 91.5551 97.1207 91.5551 96.1875V62.4375C91.5551 61.5043 90.8007 60.75 89.8676 60.75ZM88.1801 94.5H51.0551V64.125H88.1801V94.5Z" fill="white"/>
<path d="M81.9245 72.0681C82.2536 72.3971 82.6856 72.5625 83.1176 72.5625C83.5496 72.5625 83.9816 72.3971 84.3107 72.0681C84.9705 71.4082 84.9705 70.3417 84.3107 69.6819L82.6232 67.9944C81.9634 67.3346 80.8969 67.3346 80.237 67.9944C79.5772 68.6542 79.5772 69.7207 80.237 70.3806L81.9245 72.0681Z" fill="white"/>
<path d="M81.9245 80.5056C82.2536 80.8346 82.6856 81 83.1176 81C83.5496 81 83.9816 80.8346 84.3107 80.5056C84.9705 79.8457 84.9705 78.7792 84.3107 78.1194L74.1857 67.9944C73.5259 67.3346 72.4594 67.3346 71.7995 67.9944C71.1397 68.6542 71.1397 69.7207 71.7995 70.3806L81.9245 80.5056Z" fill="white"/>
</svg>
