<svg width="109" height="108" viewBox="0 0 109 108" fill="none" xmlns="http://www.w3.org/2000/svg">
<path d="M99.9927 0H8.86768C5.13661 0 2.11768 3.01894 2.11768 6.75V40.5C2.11768 44.2463 4.15618 47.5065 7.18018 49.2581V101.25C7.18018 104.981 10.1991 108 13.9302 108H94.9302C98.6612 108 101.68 104.981 101.68 101.25V49.2581C104.704 47.5065 106.743 44.2446 106.743 40.5V6.75C106.743 3.01894 103.724 0 99.9927 0ZM86.4927 3.375V40.5C86.4927 44.2277 83.4704 47.25 79.7427 47.25C76.015 47.25 72.9927 44.2277 72.9927 40.5V3.375H86.4927ZM69.6177 3.375V40.5C69.6177 44.2277 66.5954 47.25 62.8677 47.25C59.14 47.25 56.1177 44.2277 56.1177 40.5V3.375H69.6177ZM52.7427 3.375V40.5C52.7427 44.2277 49.7204 47.25 45.9927 47.25C42.265 47.25 39.2427 44.2277 39.2427 40.5V3.375H52.7427ZM35.8677 3.375V40.5C35.8677 44.2277 32.8454 47.25 29.1177 47.25C25.39 47.25 22.3677 44.2277 22.3677 40.5V3.375H35.8677ZM5.49268 6.75C5.49268 4.887 7.00468 3.375 8.86768 3.375H18.9927V40.5C18.9927 44.2277 15.9704 47.25 12.2427 47.25C8.51499 47.25 5.49268 44.2277 5.49268 40.5V6.75ZM20.6802 104.625V64.125H40.9302V81H39.2427C38.3095 81 37.5552 81.7543 37.5552 82.6875C37.5552 83.6207 38.3095 84.375 39.2427 84.375H40.9302V104.625H20.6802ZM98.3052 101.25C98.3052 103.113 96.7932 104.625 94.9302 104.625H44.3052V62.4375C44.3052 61.5668 43.5509 60.75 42.6177 60.75H18.9927C18.0595 60.75 17.3052 61.5043 17.3052 62.4375V104.625H13.9302C12.0672 104.625 10.5552 103.113 10.5552 101.25V50.4731C11.1053 50.5659 11.6656 50.625 12.2427 50.625C15.7662 50.625 18.8678 48.8227 20.6802 46.0907C22.4926 48.8227 25.5942 50.625 29.1177 50.625C32.6412 50.625 35.7428 48.8227 37.5552 46.0907C39.3676 48.8227 42.4692 50.625 45.9927 50.625C49.5162 50.625 52.6178 48.8227 54.4302 46.0907C56.2426 48.8227 59.3442 50.625 62.8677 50.625C66.3912 50.625 69.4928 48.8227 71.3052 46.0907C73.1176 48.8227 76.2192 50.625 79.7427 50.625C83.2662 50.625 86.3678 48.8227 88.1802 46.0907C89.9926 48.8227 93.0942 50.625 96.6177 50.625C97.1948 50.625 97.7551 50.5659 98.3052 50.4731V101.25ZM96.6177 47.25C92.89 47.25 89.8677 44.2277 89.8677 40.5V3.375H99.9927C101.856 3.375 103.368 4.887 103.368 6.75V40.5C103.368 44.2277 100.345 47.25 96.6177 47.25Z" fill="white"/>
<path d="M89.8677 60.75H49.3677C48.4345 60.75 47.6802 61.5043 47.6802 62.4375V96.1875C47.6802 97.1207 48.4345 97.875 49.3677 97.875H89.8677C90.8009 97.875 91.5552 97.1207 91.5552 96.1875V62.4375C91.5552 61.5043 90.8009 60.75 89.8677 60.75ZM88.1802 94.5H51.0552V64.125H88.1802V94.5Z" fill="white"/>
<path d="M81.9245 72.0681C82.2536 72.3971 82.6856 72.5625 83.1176 72.5625C83.5496 72.5625 83.9816 72.3971 84.3107 72.0681C84.9705 71.4082 84.9705 70.3417 84.3107 69.6819L82.6232 67.9944C81.9634 67.3346 80.8969 67.3346 80.237 67.9944C79.5772 68.6542 79.5772 69.7207 80.237 70.3806L81.9245 72.0681Z" fill="white"/>
<path d="M81.9245 80.5056C82.2536 80.8346 82.6856 81 83.1176 81C83.5496 81 83.9816 80.8346 84.3107 80.5056C84.9705 79.8457 84.9705 78.7792 84.3107 78.1194L74.1857 67.9944C73.5259 67.3346 72.4594 67.3346 71.7995 67.9944C71.1397 68.6542 71.1397 69.7207 71.7995 70.3806L81.9245 80.5056Z" fill="white"/>
</svg>
