<svg width="30" height="30" viewBox="0 0 30 30" fill="none" xmlns="http://www.w3.org/2000/svg">
<g clip-path="url(#clip0_1_11)">
<path d="M22.3126 19.2L25.9837 4.82534H30V2.56585H24.2288L23.3634 5.95441L0 5.9377L2.48387 19.1999H22.3126V19.2ZM22.7865 8.2135L20.5576 16.9404H4.35945L2.72228 8.19915L22.7865 8.2135Z" fill="black"/>
<path d="M19.2196 27.4342C21.2119 27.4342 22.8328 25.8132 22.8328 23.8209C22.8328 21.8285 21.2119 20.2076 19.2196 20.2076H5.60611C3.61375 20.2076 1.9928 21.8285 1.9928 23.8209C1.9928 25.8132 3.61371 27.4342 5.60611 27.4342C7.59852 27.4342 9.2194 25.8132 9.2194 23.8209C9.2194 23.3424 9.12566 22.8855 8.956 22.4671H15.8697C15.7 22.8855 15.6062 23.3424 15.6062 23.8209C15.6063 25.8132 17.2272 27.4342 19.2196 27.4342ZM6.95991 23.8209C6.95991 24.5674 6.35261 25.1747 5.60611 25.1747C4.85962 25.1747 4.25228 24.5674 4.25228 23.8209C4.25228 23.0744 4.85959 22.4671 5.60611 22.4671C6.35261 22.4671 6.95991 23.0744 6.95991 23.8209ZM20.5734 23.8209C20.5734 24.5674 19.9661 25.1747 19.2196 25.1747C18.4731 25.1747 17.8658 24.5674 17.8658 23.8209C17.8658 23.0744 18.4731 22.4671 19.2196 22.4671C19.9661 22.4671 20.5734 23.0744 20.5734 23.8209Z" fill="black"/>
</g>
<defs>
<clipPath id="clip0_1_11">
<rect width="30" height="30" fill="white"/>
</clipPath>
</defs>
</svg>
