<svg width="102" height="108" viewBox="0 0 102 108" fill="none" xmlns="http://www.w3.org/2000/svg">
<path fill-rule="evenodd" clip-rule="evenodd" d="M11.2737 4.31346C11.9996 2.13565 14.0377 0.666687 16.3333 0.666687H85.6666C87.9621 0.666687 90.0005 2.13565 90.7264 4.31346L94.8442 16.6667H96.3333C99.2789 16.6667 101.667 19.0545 101.667 22C101.667 24.9455 99.2789 27.3334 96.3333 27.3334H91H90.4933L82.9733 102.531C82.7008 105.257 80.4069 107.333 77.6666 107.333H24.3333C21.5933 107.333 19.2991 105.257 19.0264 102.531L11.5067 27.3334H11H5.66665C2.72115 27.3334 0.333313 24.9455 0.333313 22C0.333313 19.0545 2.72115 16.6667 5.66665 16.6667H7.15593L11.2737 4.31346ZM22.2266 27.3334L29.1599 96.6667H72.84L79.7733 27.3334H22.2266ZM83.6005 16.6667H18.3996L20.1774 11.3334H81.8224L83.6005 16.6667Z" fill="white"/>
</svg>
