<svg width="109" height="108" viewBox="0 0 109 108" fill="none" xmlns="http://www.w3.org/2000/svg">
<path fill-rule="evenodd" clip-rule="evenodd" d="M12.3303 3.69236C13.104 1.48732 15.2761 0 17.7228 0H91.6175C94.064 0 96.2365 1.48732 97.0101 3.69236L101.399 16.2H102.986C106.125 16.2 108.67 18.6177 108.67 21.6C108.67 24.5823 106.125 27 102.986 27H97.3017H96.7617L88.747 103.137C88.4565 105.898 86.0118 108 83.0912 108H26.2491C23.3288 108 20.8837 105.898 20.5931 103.137L12.5786 27H12.0386H6.35438C3.2151 27 0.670166 24.5823 0.670166 21.6C0.670166 18.6177 3.2151 16.2 6.35438 16.2H7.94163L12.3303 3.69236ZM24.0038 27L31.3933 97.2H77.947L85.3365 27H24.0038ZM89.4155 16.2H19.925L21.8197 10.8H87.5203L89.4155 16.2Z" fill="white"/>
</svg>
